<svg id="Capa_1" enable-background="new 0 0 512 512" height="512" viewBox="0 0 512 512" width="512" xmlns="http://www.w3.org/2000/svg"><g><path d="m474.877 163.128-84.216-41.789-41.789-84.216c47.148-22.877 98.939-35.485 163.128-37.123-1.638 64.19-14.246 115.98-37.123 163.128z" fill="#ff5959"/><path d="m474.877 163.128c22.877-47.148 35.485-98.938 37.123-163.128l-121.339 121.339z" fill="#e63a57"/><g id="Project_Launch_2_"><g><path d="m104.283 216.798-21.213-21.213 112.084-112.084 100.545 25.284-15.268 18.334c-23.782 28.505-47.046 68.218-63.857 108.977l-8.587 20.768-40.065-40.065c-17.546-17.547-46.093-17.547-63.639-.001z" fill="#ff5959"/></g><g><path d="m316.415 428.93-21.213-21.213c17.546-17.546 17.546-46.093 0-63.64l-40.065-40.065 20.768-8.587c40.759-16.811 80.471-40.075 108.977-63.857l18.334-15.268 25.284 100.545z" fill="#e63a57"/></g><g><path d="m474.877 163.128-126.005-126.005c-26.092 12.515-52.185 29.698-74.883 52.396-35.15 35.15-66.34 88.892-85.065 135.128-20.89 49.518-21.337 71.525-22.274 75.731l44.972 44.972c3.996-.89 26.262-1.404 75.731-22.274 45.727-18.519 99.488-49.425 135.128-85.065 22.698-22.698 39.881-48.791 52.396-74.883z" fill="#f9f4f3"/></g><g><path d="m0 512c10.922-33.41 55.599-161.665 83.07-189.136 29.241-29.241 76.815-29.251 106.066 0s29.241 76.825 0 106.066c-27.5 27.501-158.651 73.105-189.136 83.07z" fill="#ffea80"/></g></g><path d="m411.874 100.126-222.738 222.738 22.486 22.486c3.997-.889 26.261-1.405 75.731-22.274 45.727-18.519 99.489-49.426 135.128-85.065 22.698-22.698 39.881-48.791 52.396-74.883z" fill="#d9c4ad"/><path d="m189.136 428.93c29.241-29.241 29.251-76.815 0-106.066l-189.136 189.136c30.485-9.966 161.636-55.57 189.136-83.07z" fill="#fc6"/><g><path d="m316.415 195.585c-17.546-17.546-17.546-46.093 0-63.64s46.093-17.546 63.64 0c17.546 17.546 17.546 46.093 0 63.64-17.547 17.547-46.094 17.547-63.64 0z" fill="#6cf"/></g><path d="m380.055 195.585c17.546-17.546 17.546-46.093 0-63.64l-63.64 63.64c17.546 17.547 46.093 17.547 63.64 0z" fill="#59abff"/></g></svg>