<svg id="Layer_5" enable-background="new 0 0 64 64" height="512" viewBox="0 0 64 64" width="512" xmlns="http://www.w3.org/2000/svg"><g><g><g><path d="m19 45h5c0 3.31-2.69 6-6 6h-5c0-3.31 2.69-6 6-6z" fill="#b4dd7f"/></g><g><path d="m13 58h-5c-3.31 0-6-2.69-6-6h5c3.31 0 6 2.69 6 6z" fill="#b4dd7f"/></g><g><path d="m57 45h5c0 3.31-2.69 6-6 6h-5c0-3.31 2.69-6 6-6z" fill="#b4dd7f"/></g><g><path d="m51 58h-5c-3.31 0-6-2.69-6-6h5c3.31 0 6 2.69 6 6z" fill="#b4dd7f"/></g><g><path d="m38 36h4c0 1.66-.67 3.16-1.76 4.24-1.08 1.09-2.58 1.76-4.24 1.76h-4c0-1.66.67-3.16 1.76-4.24 1.08-1.09 2.58-1.76 4.24-1.76z" fill="#b4dd7f"/></g><g><path d="m32 42h-4c-1.1 0-2.1-.45-2.83-1.17-.72-.73-1.17-1.73-1.17-2.83h4c1.1 0 2.1.45 2.83 1.17.72.73 1.17 1.73 1.17 2.83z" fill="#a0d468"/></g><g><path d="m36 46h4c0 1.1-.45 2.1-1.17 2.83-.73.72-1.73 1.17-2.83 1.17h-4c0-1.1.45-2.1 1.17-2.83.73-.72 1.73-1.17 2.83-1.17z" fill="#a0d468"/></g><g><path d="m32 58h-4c-1.1 0-2.1-.45-2.83-1.17-.72-.73-1.17-1.73-1.17-2.83h4c1.1 0 2.1.45 2.83 1.17.72.73 1.17 1.73 1.17 2.83z" fill="#a0d468"/></g><g><path d="m16 38v2c0 1.1-.9 2-2 2h-1-1c-1.1 0-2-.9-2-2v-2h3z" fill="#aab2bd"/></g><g><path d="m33 26h4v2c0 2.21-1.79 4-4 4h-1-1c-2.21 0-4-1.79-4-4v-2h4z" fill="#aab2bd"/></g><g><path d="m54 38v2c0 1.1-.9 2-2 2h-1-1c-1.1 0-2-.9-2-2v-2h3z" fill="#aab2bd"/></g><g><path d="m16 37.21v.79h-3-3v-.75c0-1-.46-1.97-1.3-2.51-2.5-1.59-4.05-4.53-3.63-7.79.45-3.59 3.4-6.49 7-6.9 4.83-.54 8.93 3.22 8.93 7.95 0 2.83-1.47 5.31-3.68 6.73-.84.54-1.32 1.48-1.32 2.48z" fill="#ffeaa7"/></g><g><path d="m30.73 2.07c-4.84.54-8.85 4.36-9.59 9.18-.64 4.13 1.02 7.9 3.9 10.26 1.2.98 1.96 2.41 1.96 3.97v.52h4 2 4v-.53c0-1.53.72-2.96 1.92-3.93 2.49-2.01 4.08-5.09 4.08-8.54 0-6.49-5.62-11.67-12.27-10.93z" fill="#ffeaa7"/></g><g><path d="m51 38h-3v-.75c0-1-.46-1.97-1.3-2.51-2.5-1.59-4.05-4.53-3.63-7.79.45-3.59 3.4-6.49 7-6.9 4.83-.54 8.93 3.22 8.93 7.95 0 2.83-1.47 5.31-3.68 6.73-.84.54-1.32 1.48-1.32 2.48v.79z" fill="#ffeaa7"/></g><g><circle cx="13" cy="28" fill="#fcd770" r="2"/></g><g><path d="m37.41 11.59c.37.36.59.86.59 1.41 0 1.1-.9 2-2 2h-2.26l.14-2.13c.07-1.05.94-1.87 1.99-1.87h.13c.55 0 1.05.22 1.41.59z" fill="#fcd770"/></g><g><path d="m30.12 12.87.14 2.13h-2.26c-.55 0-1.05-.22-1.41-.59-.37-.36-.59-.86-.59-1.41 0-1.1.9-2 2-2h.13c1.05 0 1.92.82 1.99 1.87z" fill="#fcd770"/></g><g><circle cx="51" cy="28" fill="#fcd770" r="2"/></g></g><g><path d="m61 61h2v2h-2z"/><path d="m1 61h2v2h-2z"/><path d="m57 44c-1.958 0-3.728.81-5 2.111v-3.111c1.654 0 3-1.346 3-3v-2.791c0-.68.322-1.293.862-1.64 2.591-1.666 4.138-4.496 4.138-7.569 0-2.56-1.096-5.007-3.006-6.714-1.909-1.706-4.475-2.516-7.039-2.227-4.051.458-7.365 3.723-7.88 7.763-.447 3.509 1.118 6.866 4.084 8.761.518.331.84.97.84 1.667v2.75c0 1.654 1.346 3 3 3v8 1 1.111c-1.271-1.301-3.041-2.111-4.999-2.111h-6v1c0 3.859 3.14 7 7 7h4v2h-17v-2-1-7h3c2.757 0 5-2.243 5-5v-1h-5c-1.13 0-2.162.391-3 1.026v-3.026h3c3.86 0 7-3.141 7-7v-1h-5c-1.958 0-3.728.81-5 2.111v-4.111c2.757 0 5-2.243 5-5v-2.53c0-1.207.563-2.355 1.544-3.149 2.832-2.291 4.456-5.688 4.456-9.321 0-3.41-1.458-6.671-4.002-8.946-2.541-2.272-5.957-3.356-9.376-2.977-5.265.588-9.67 4.802-10.475 10.021-.661 4.281.931 8.461 4.258 11.182 1.013.829 1.595 1.993 1.595 3.195v2.525c0 2.757 2.243 5 5 5v5.026c-.838-.635-1.87-1.026-3-1.026h-5v1c0 2.757 2.243 5 5 5h3v7 1 3.026c-.838-.635-1.87-1.026-3-1.026h-5v1c0 2.757 2.243 5 5 5h3v2h-17v-2-1-6h4c3.86 0 7-3.141 7-7v-1h-6c-1.958 0-3.728.81-5 2.111v-3.111c1.654 0 3-1.346 3-3v-2.791c0-.68.322-1.293.862-1.64 2.591-1.666 4.138-4.496 4.138-7.569 0-2.56-1.096-5.007-3.006-6.714-1.909-1.706-4.476-2.516-7.039-2.227-4.051.458-7.365 3.723-7.88 7.763-.447 3.509 1.118 6.866 4.084 8.761.519.331.841.97.841 1.667v2.75c0 1.654 1.346 3 3 3v8 1 1.111c-1.272-1.301-3.042-2.111-5-2.111h-6v1c0 3.859 3.14 7 7 7h4v2h-7v2h54v-2h-7v-2-1-6h4c3.86 0 7-3.141 7-7v-1zm-9.764-10.103c-2.308-1.474-3.525-4.088-3.177-6.822.4-3.137 2.974-5.673 6.12-6.029.279-.031.555-.046.83-.046 1.725 0 3.353.617 4.652 1.778 1.486 1.327 2.339 3.231 2.339 5.222 0 2.39-1.204 4.591-3.22 5.888-1.057.679-1.703 1.833-1.768 3.112h-1.012v-6.184c1.161-.414 2-1.514 2-2.816 0-1.654-1.346-3-3-3s-3 1.346-3 3c0 1.302.839 2.402 2 2.816v6.184h-1.015c-.074-1.291-.711-2.439-1.749-3.103zm2.764-5.897c0-.551.449-1 1-1s1 .449 1 1-.449 1-1 1-1-.449-1-1zm-1 12v-1h4v1c0 .552-.449 1-1 1h-2c-.551 0-1-.448-1-1zm-3 17c-2.415 0-4.435-1.721-4.899-4h3.899c2.415 0 4.435 1.721 4.899 4zm-10-10h2.829c-.413 1.164-1.525 2-2.829 2h-2.829c.413-1.164 1.525-2 2.829-2zm2-10h2.899c-.464 2.279-2.485 4-4.899 4h-2.899c.464-2.279 2.484-4 4.899-4zm-12.329-16.268c-2.773-2.268-4.099-5.756-3.548-9.33.67-4.341 4.337-7.848 8.72-8.338.392-.043.782-.065 1.168-.065 2.467 0 4.794.884 6.652 2.545 2.121 1.897 3.337 4.614 3.337 7.456 0 3.026-1.354 5.857-3.713 7.766-1.327 1.073-2.129 2.597-2.26 4.234h-1.958l.6-9h1.331c1.654 0 3-1.346 3-3s-1.346-3-3-3h-.129c-1.573 0-2.888 1.23-2.993 2.801l-.08 1.199h-1.596l-.08-1.2c-.105-1.57-1.42-2.8-2.993-2.8h-.129c-1.654 0-3 1.346-3 3s1.346 3 3 3h1.331l.6 9h-1.959c-.135-1.63-.951-3.165-2.301-4.268zm6.264 4.268-.6-9h1.329l-.6 9zm2.867-11 .071-1.066c.035-.524.474-.934.998-.934h.129c.551 0 1 .449 1 1s-.449 1-1 1zm-5.604 0h-1.198c-.551 0-1-.449-1-1s.449-1 1-1h.129c.524 0 .963.41.998.934zm-1.198 14v-1h8v1c0 1.654-1.346 3-3 3h-2c-1.654 0-3-1.346-3-3zm0 13c-1.304 0-2.416-.836-2.829-2h2.829c1.304 0 2.416.836 2.829 2zm0 16c-1.304 0-2.416-.836-2.829-2h2.829c1.304 0 2.416.836 2.829 2zm-9-11h3.899c-.464 2.279-2.485 4-4.899 4h-3.899c.464-2.279 2.484-4 4.899-4zm-9.764-12.103c-2.308-1.474-3.525-4.088-3.177-6.822.4-3.137 2.974-5.673 6.12-6.029.279-.031.555-.046.83-.046 1.725 0 3.353.617 4.652 1.778 1.486 1.327 2.339 3.231 2.339 5.222 0 2.39-1.204 4.591-3.22 5.888-1.057.679-1.703 1.833-1.768 3.112h-1.012v-6.184c1.161-.414 2-1.514 2-2.816 0-1.654-1.346-3-3-3s-3 1.346-3 3c0 1.302.839 2.402 2 2.816v6.184h-1.015c-.074-1.291-.711-2.439-1.749-3.103zm2.764-5.897c0-.551.449-1 1-1s1 .449 1 1-.449 1-1 1-1-.449-1-1zm-1 12v-1h4v1c0 .552-.449 1-1 1h-2c-.551 0-1-.448-1-1zm-3 17c-2.415 0-4.435-1.721-4.899-4h3.899c2.415 0 4.435 1.721 4.899 4zm48-7h-3.899c.464-2.279 2.485-4 4.899-4h3.899c-.464 2.279-2.484 4-4.899 4z"/></g></g></svg>