<svg width="142" height="33" viewBox="0 0 142 33" fill="none" xmlns="http://www.w3.org/2000/svg">
<g clip-path="url(#clip0)">
<path d="M141.64 30.9441H141.569V30.9595C141.569 31.0057 141.563 31.0427 141.55 31.0704C141.538 31.0951 141.523 31.1105 141.501 31.1105C141.483 31.1105 141.467 31.1013 141.458 31.0858C141.449 31.0704 141.446 31.0427 141.446 31.0026C141.446 30.9132 141.421 30.8423 141.375 30.7869C141.329 30.7345 141.255 30.6975 141.159 30.6759C141.282 30.6543 141.372 30.6235 141.424 30.5834C141.479 30.5433 141.504 30.4848 141.504 30.4139C141.504 30.3399 141.467 30.2783 141.39 30.232C141.316 30.1858 141.215 30.1611 141.091 30.1611H140.58V30.232C140.629 30.2382 140.663 30.2505 140.679 30.2659C140.694 30.2813 140.703 30.3091 140.703 30.3492V31.0057C140.703 31.0427 140.694 31.0704 140.679 31.0889C140.663 31.1074 140.629 31.1136 140.58 31.1198V31.1906H141.079V31.1198C141.036 31.1136 141.005 31.1013 140.99 31.0858C140.974 31.0704 140.965 31.0458 140.965 31.0088V30.7036H140.987C141.042 30.7036 141.082 30.719 141.113 30.7499C141.141 30.7807 141.162 30.8331 141.171 30.904C141.175 30.9225 141.175 30.9502 141.178 30.9872C141.181 31.0674 141.196 31.1228 141.224 31.1537C141.239 31.1722 141.264 31.1876 141.292 31.1999C141.319 31.2122 141.356 31.2153 141.393 31.2153C141.473 31.2153 141.532 31.1968 141.572 31.1598C141.612 31.1228 141.63 31.0674 141.63 30.9903C141.63 30.9872 141.63 30.981 141.627 30.9749C141.64 30.9533 141.64 30.9471 141.64 30.9441ZM141.027 30.6266C141.014 30.6266 141.005 30.6266 140.999 30.6266C140.993 30.6266 140.987 30.6266 140.977 30.6235V30.306C140.977 30.2783 140.987 30.2598 140.999 30.2474C141.014 30.2351 141.036 30.2289 141.067 30.2289C141.116 30.2289 141.159 30.2474 141.19 30.2813C141.221 30.3153 141.239 30.3584 141.239 30.4108C141.239 30.4848 141.221 30.5372 141.187 30.5742C141.15 30.6081 141.097 30.6266 141.027 30.6266Z" fill="black"/>
<path d="M141.932 30.3405C141.886 30.2265 141.824 30.1248 141.741 30.0385C141.652 29.9491 141.55 29.8782 141.433 29.8289C141.316 29.7795 141.193 29.7549 141.066 29.7549C140.94 29.7549 140.82 29.7795 140.706 29.8258C140.592 29.872 140.49 29.9429 140.401 30.0292C140.312 30.1155 140.247 30.2172 140.198 30.3313C140.152 30.4453 140.127 30.5625 140.127 30.6858C140.127 30.843 140.164 30.9909 140.238 31.1265C140.312 31.2622 140.413 31.3762 140.549 31.4625C140.626 31.5118 140.712 31.5519 140.798 31.5766C140.885 31.6043 140.974 31.6166 141.066 31.6166C141.187 31.6166 141.301 31.5951 141.408 31.5519C141.516 31.5088 141.615 31.4471 141.701 31.3639C141.797 31.2745 141.871 31.1728 141.923 31.0556C141.975 30.9385 142.003 30.8214 142.003 30.7043C142 30.5779 141.978 30.4546 141.932 30.3405ZM141.793 30.9848C141.753 31.0834 141.695 31.1697 141.621 31.2468C141.547 31.3207 141.461 31.3793 141.368 31.4163C141.273 31.4564 141.171 31.4749 141.066 31.4749C140.962 31.4749 140.86 31.4564 140.765 31.4163C140.672 31.3762 140.583 31.3207 140.506 31.2437C140.429 31.1697 140.373 31.0834 140.333 30.9878C140.293 30.8923 140.275 30.7906 140.275 30.6827C140.275 30.5779 140.293 30.4762 140.333 30.3806C140.373 30.2851 140.429 30.1987 140.503 30.1248C140.574 30.0508 140.66 29.9922 140.758 29.9522C140.857 29.9121 140.959 29.8905 141.066 29.8905C141.168 29.8905 141.267 29.909 141.362 29.9522C141.458 29.9922 141.544 30.0508 141.618 30.1217C141.692 30.1926 141.75 30.2789 141.79 30.3775C141.83 30.4762 141.852 30.5779 141.852 30.6827C141.855 30.7875 141.834 30.8892 141.793 30.9848Z" fill="black"/>
<path d="M132.604 15.594L132.61 8.16858C132.62 6.99111 132.638 4.79954 131.132 3.28917C130.174 2.33055 128.778 1.84045 126.985 1.84045H122.263C119.33 1.84045 118.138 0.35474 118.095 0.299257C117.891 0.0280072 117.537 -0.0552172 117.21 0.0434191C116.884 0.142055 116.653 0.465706 116.637 0.80785C116.582 2.00381 116.711 4.24163 118.199 5.79206C119.016 6.6428 120.106 7.14215 121.443 7.28394C120.698 7.59834 119.965 7.75863 119.262 7.75863C118.36 7.75863 117.82 7.49046 117.82 7.49046C117.522 7.33017 117.161 7.39799 116.905 7.623C116.65 7.8511 116.579 8.23948 116.708 8.55388C117.173 9.6882 118.566 12.3267 121.434 12.3267C122.183 12.3267 122.971 12.1387 123.781 11.7657C127.272 10.166 127.552 10.0365 127.577 10.0242C128.627 9.54333 129.521 9.29982 130.238 9.29982C130.605 9.29982 130.845 9.36455 130.987 9.42311V15.6033C126.532 16.0102 123.03 19.7491 123.03 24.2864C123.03 29.098 126.964 33.0095 131.797 33.0095C136.627 33.0095 140.558 29.098 140.558 24.2864C140.561 19.7368 137.059 16.0009 132.604 15.594ZM126.902 8.55696C126.902 8.55696 125.602 9.15494 123.107 10.2985C122.512 10.5728 121.948 10.7115 121.437 10.7115C120.343 10.7146 119.546 10.0642 119.003 9.3553C120.038 9.39845 121.212 9.16111 122.34 8.64635C122.34 8.64635 123.396 8.16242 125.217 7.32401H126.985C128.282 7.32401 129.169 7.49354 129.773 7.71239C128.929 7.78637 127.965 8.07303 126.902 8.55696ZM126.985 5.71809H122.263C121.003 5.71809 120.029 5.3667 119.367 4.67932C118.868 4.1584 118.52 3.4063 118.353 2.51241C119.234 3.00251 120.519 3.44637 122.263 3.44637H126.985C128.334 3.44637 129.342 3.7731 129.986 4.4204C130.54 4.97523 130.793 5.72117 130.907 6.44553C130.075 6.03557 128.83 5.71809 126.985 5.71809ZM131.8 31.3943C127.857 31.3943 124.65 28.201 124.65 24.2771C124.65 20.6276 127.429 17.613 130.99 17.2092V19.8385C130.697 19.6875 130.451 19.4563 130.275 19.1573C130.05 18.772 129.557 18.6425 129.172 18.8645C128.787 19.0864 128.655 19.5796 128.88 19.9618C129.48 20.9944 130.602 21.6386 131.8 21.6386C133.002 21.6386 134.117 20.9944 134.717 19.9618C134.942 19.5765 134.807 19.0864 134.422 18.8645C134.037 18.6456 133.541 18.7751 133.319 19.1604C133.149 19.4532 132.897 19.6844 132.604 19.8385V17.2092C136.165 17.6068 138.944 20.6245 138.944 24.2771C138.944 28.201 135.74 31.3943 131.8 31.3943Z" fill="black"/>
<path d="M46.3259 21.1952C45.8176 20.7452 45.1584 20.5171 44.3482 20.5171C43.7598 20.5171 43.2268 20.6743 42.7555 20.9887C42.2842 21.3031 41.8714 21.7778 41.5171 22.4097V20.8038H36.7422V22.3234H37.4939C38.0083 22.3234 38.3533 22.4035 38.5228 22.5607C38.6922 22.7179 38.7785 23.0878 38.7785 23.6673V28.5837C38.7785 29.1632 38.6922 29.5331 38.5228 29.6964C38.3533 29.8567 38.0114 29.9399 37.4939 29.9399H36.7422V31.4472H43.9385V29.9399H42.811C42.2965 29.9399 41.9515 29.8598 41.779 29.6964C41.6064 29.5331 41.5202 29.1632 41.5202 28.5837V25.7232C41.5202 24.5488 41.7697 23.5871 42.2719 22.835C42.774 22.0829 43.3994 21.7069 44.151 21.7069C44.2835 21.7069 44.4283 21.7285 44.5885 21.7685C44.7456 21.8086 44.9119 21.8641 45.0814 21.9381C44.6316 22.0614 44.2896 22.2556 44.0524 22.5176C43.8152 22.7765 43.6982 23.094 43.6982 23.47C43.6982 23.88 43.8399 24.216 44.1295 24.4749C44.416 24.7369 44.7918 24.8663 45.257 24.8663C45.8022 24.8663 46.2427 24.6876 46.5847 24.3331C46.9236 23.9786 47.093 23.5163 47.093 22.9522C47.0899 22.2309 46.8342 21.6452 46.3259 21.1952Z" fill="black"/>
<path d="M34.7061 21.9221C33.8435 20.908 32.5928 20.3994 30.9477 20.3994C29.2473 20.3994 27.8764 20.9265 26.8413 21.9776C25.8062 23.0287 25.2887 24.4127 25.2887 26.1296C25.2887 27.868 25.8001 29.2551 26.8259 30.2939C27.8487 31.3326 29.2257 31.8505 30.9477 31.8505C32.334 31.8505 33.4708 31.4744 34.358 30.7223C35.2452 29.9702 35.772 28.9438 35.9321 27.6369H34.0314C33.8466 28.503 33.5324 29.1195 33.0857 29.4894C32.639 29.8593 31.9828 30.0442 31.1141 30.0442C30.2669 30.0442 29.6077 29.7298 29.1425 29.0979C28.6743 28.466 28.4186 27.5505 28.3755 26.3484H36.003C35.9999 24.4127 35.5686 22.9362 34.7061 21.9221ZM28.4833 24.7548C28.6157 23.8239 28.8899 23.1181 29.3058 22.6372C29.7217 22.1564 30.2608 21.9159 30.9262 21.9159C31.5762 21.9159 32.066 22.144 32.4018 22.5972C32.7376 23.0503 32.9378 23.7715 33.0056 24.7548H28.4833Z" fill="black"/>
<path d="M114.774 19.5058C115.251 19.5058 115.655 19.3424 115.984 19.0095C116.311 18.6797 116.477 18.279 116.477 17.8105C116.477 17.3419 116.314 16.9443 115.984 16.6207C115.655 16.297 115.251 16.1367 114.774 16.1367C114.302 16.1367 113.905 16.3001 113.585 16.6207C113.264 16.9443 113.104 17.3388 113.104 17.8105C113.104 18.2821 113.267 18.6797 113.591 19.0095C113.917 19.3393 114.312 19.5058 114.774 19.5058Z" fill="black"/>
<path d="M51.3905 19.5058C51.8679 19.5058 52.2746 19.3424 52.6011 19.0095C52.9277 18.6766 53.094 18.279 53.094 17.8105C53.094 17.3419 52.9308 16.9443 52.6011 16.6207C52.2746 16.297 51.871 16.1367 51.3905 16.1367C50.9191 16.1367 50.5217 16.3001 50.2013 16.6207C49.881 16.9443 49.7208 17.3388 49.7208 17.8105C49.7208 18.2821 49.884 18.6797 50.2075 19.0095C50.531 19.3393 50.9253 19.5058 51.3905 19.5058Z" fill="black"/>
<path d="M6.93134 24.0491C6.93134 24.5269 7.07921 24.906 7.37494 25.1896C7.67068 25.4701 8.06192 25.6119 8.55789 25.6119C9.10932 25.6119 9.54984 25.4362 9.87947 25.0879C10.2091 24.7396 10.3724 24.271 10.3724 23.6854C10.3724 22.7391 9.95648 21.9531 9.12472 21.3304C8.29296 20.7078 7.22399 20.3965 5.91782 20.3965C4.16496 20.3965 2.74173 20.9267 1.64504 21.9901C0.548346 23.0566 0 24.4344 0 26.1297C0 27.8774 0.492895 29.2614 1.4756 30.2879C2.45831 31.3143 3.79529 31.829 5.48346 31.829C6.99295 31.829 8.14817 31.4283 8.94297 30.6238C9.73776 29.8193 10.1752 28.6234 10.2584 27.0329H8.51168C8.40078 27.973 8.13277 28.6665 7.70457 29.1196C7.27636 29.5697 6.67873 29.7978 5.91474 29.7978C4.97208 29.7978 4.26354 29.4895 3.79221 28.8792C3.32088 28.2689 3.08367 27.3442 3.08367 26.1112C3.08367 24.7858 3.34244 23.7501 3.86307 23.0073C4.38369 22.2675 5.10146 21.8976 6.02256 21.8976C6.45693 21.8976 6.85124 21.9623 7.20551 22.0887C7.55978 22.2182 7.9048 22.4216 8.24367 22.699C7.85243 22.7422 7.53513 22.8901 7.29177 23.146C7.05148 23.3956 6.93134 23.6977 6.93134 24.0491Z" fill="black"/>
<path d="M53.2418 29.6871C53.0693 29.5207 52.9831 29.1539 52.9831 28.5806V20.8037H48.088V22.3233H48.9259C49.4404 22.3233 49.7854 22.4004 49.9579 22.5607C50.1304 22.7179 50.2198 23.0878 50.2198 23.6672V28.5837C50.2198 29.1631 50.1335 29.533 49.9579 29.6964C49.7823 29.8598 49.4404 29.9399 48.9259 29.9399H48.088V31.4472H54.9731V29.9399H54.2892C53.7625 29.9368 53.4144 29.8536 53.2418 29.6871Z" fill="black"/>
<path d="M23.1229 29.687C22.9473 29.5205 22.858 29.1537 22.858 28.5804V24.3884C22.858 22.9797 22.59 21.9749 22.057 21.3738C21.521 20.7727 20.643 20.4707 19.42 20.4707C18.77 20.4707 18.1323 20.6556 17.5008 21.0255C16.8693 21.3954 16.2655 21.944 15.6833 22.6715V16.3218H11.0624V17.8291H11.6477C12.1714 17.8291 12.5195 17.9123 12.6982 18.0757C12.8738 18.2421 12.9631 18.6089 12.9631 19.1822V28.5773C12.9631 29.1476 12.8738 29.5175 12.6982 29.6839C12.5226 29.8504 12.1714 29.9336 11.6477 29.9336H11.0624V31.4409H17.4515V29.9336H16.9987C16.475 29.9336 16.1238 29.8504 15.9482 29.6839C15.7726 29.5175 15.6833 29.1507 15.6833 28.5773V25.9142C15.6833 24.749 15.9297 23.8366 16.4257 23.1801C16.9186 22.5235 17.5994 22.1937 18.4712 22.1937C19.0596 22.1937 19.4878 22.3632 19.7497 22.6992C20.0115 23.0352 20.1409 23.5993 20.1409 24.3822V28.5743C20.1409 29.1445 20.0546 29.5144 19.8821 29.6808C19.7096 29.8473 19.3615 29.9305 18.8378 29.9305H18.3849V31.4378H24.8049V29.9305H24.1765C23.6466 29.9367 23.2985 29.8534 23.1229 29.687Z" fill="black"/>
<path d="M62.992 20.3964C62.1448 20.3964 61.424 20.5628 60.8325 20.8957C60.2379 21.2286 59.7327 21.7557 59.3138 22.4739V16.3276H54.8038V17.8349H55.2782C55.8019 17.8349 56.1469 17.9151 56.3163 18.0753C56.4858 18.2387 56.569 18.6086 56.569 19.1881V31.5546H58.06L58.9657 30.0689C59.4955 30.67 60.0839 31.1138 60.7339 31.4005C61.3839 31.6872 62.1109 31.8289 62.9242 31.8289C64.3382 31.8289 65.4626 31.3111 66.2944 30.2785C67.1261 29.2428 67.5451 27.8465 67.5451 26.0865C67.5451 24.3264 67.1354 22.9394 66.319 21.9222C65.5027 20.905 64.3937 20.3964 62.992 20.3964ZM63.8268 29.0116C63.4017 29.6435 62.7548 29.9579 61.8861 29.9579C61.0913 29.9579 60.4628 29.622 60.0007 28.9469C59.5386 28.2719 59.3107 27.341 59.3107 26.1512C59.3107 24.9645 59.5386 24.0336 59.9977 23.3678C60.4536 22.6989 61.0851 22.366 61.8861 22.366C62.7548 22.366 63.4017 22.6773 63.8268 23.3C64.252 23.9226 64.4614 24.872 64.4614 26.1481C64.4645 27.4273 64.252 28.3798 63.8268 29.0116Z" fill="black"/>
<path d="M80.2926 29.6871C80.117 29.5207 80.0277 29.1539 80.0277 28.5806V20.8037H74.9539V22.3233H75.9921C76.522 22.3233 76.8732 22.4035 77.0488 22.5638C77.2213 22.724 77.3106 23.0908 77.3106 23.6642V26.4137C77.3106 27.5449 77.0611 28.4295 76.5589 29.0768C76.0568 29.7241 75.3791 30.0447 74.5257 30.0447C73.9374 30.0447 73.5092 29.8783 73.2504 29.5392C72.9885 29.2001 72.8591 28.6422 72.8591 27.8562V20.8037H68.306V22.3233H68.8236C69.3473 22.3233 69.6985 22.4035 69.8741 22.5638C70.0496 22.724 70.139 23.0908 70.139 23.6642V27.8562C70.139 29.271 70.407 30.279 70.9399 30.8831C71.476 31.4842 72.3539 31.7862 73.5769 31.7862C74.2269 31.7862 74.8646 31.5982 75.4961 31.2253C76.1246 30.8523 76.7315 30.3005 77.3137 29.5762V31.4472H81.9315V29.9399H81.3462C80.8194 29.9368 80.4682 29.8536 80.2926 29.6871Z" fill="black"/>
<path d="M95.172 29.6932C94.9995 29.5298 94.9132 29.1599 94.9132 28.5805V24.3884C94.9132 22.9798 94.6452 21.9749 94.1061 21.3738C93.567 20.7728 92.6829 20.4707 91.4537 20.4707C90.8129 20.4707 90.1814 20.6556 89.5591 21.0194C88.9369 21.3862 88.33 21.9379 87.7416 22.6715V20.8005H82.9667V22.3201H83.7183C84.2328 22.3201 84.5747 22.4003 84.7473 22.5575C84.9167 22.7147 84.9999 23.0846 84.9999 23.6641V28.5835C84.9999 29.163 84.9167 29.5329 84.7473 29.6963C84.5778 29.8566 84.2359 29.9398 83.7183 29.9398H82.9667V31.4471H89.4883V29.9398H89.0354C88.5179 29.9398 88.1729 29.8596 88.0004 29.6963C87.8279 29.5329 87.7416 29.163 87.7416 28.5835V25.834C87.7416 24.7028 87.988 23.8182 88.4809 23.1709C88.9738 22.5267 89.6485 22.203 90.5049 22.203C91.1025 22.203 91.5307 22.3725 91.7926 22.7085C92.0544 23.0445 92.1869 23.6086 92.1869 24.3915V28.5835C92.1869 29.163 92.0976 29.5329 91.925 29.6963C91.7525 29.8566 91.4075 29.9398 90.893 29.9398H90.4402V31.4471H96.8725V29.9398H96.2101C95.6895 29.9367 95.3445 29.8566 95.172 29.6932Z" fill="black"/>
<path d="M117.669 29.9368C117.146 29.9368 116.798 29.8536 116.625 29.6871C116.453 29.5207 116.366 29.1539 116.366 28.5806V20.8037H111.471V22.3233H112.312C112.827 22.3233 113.172 22.4004 113.347 22.5607C113.52 22.7179 113.606 23.0878 113.606 23.6672V28.5837C113.606 29.1631 113.517 29.533 113.347 29.6964C113.175 29.8567 112.83 29.9399 112.312 29.9399H111.471V31.4472H118.356V29.9399H117.669V29.9368Z" fill="black"/>
<path d="M108.779 29.693C108.606 29.5296 108.52 29.1598 108.52 28.5803V16.3247H103.536V17.832H104.484C104.999 17.832 105.344 17.9121 105.519 18.0724C105.692 18.2358 105.778 18.6057 105.778 19.1852V22.585C105.402 21.8391 104.919 21.2843 104.324 20.9298C103.73 20.5722 103 20.3965 102.131 20.3965C100.686 20.3965 99.5616 20.8959 98.7545 21.8915C97.9474 22.8871 97.5438 24.2865 97.5438 26.0835C97.5438 27.8806 97.9474 29.2769 98.7545 30.2694C99.5616 31.2619 100.686 31.7613 102.131 31.7613C103.009 31.7613 103.742 31.5856 104.337 31.2342C104.928 30.8828 105.409 30.3372 105.778 29.5944V31.4438H110.464V29.9365H109.814C109.296 29.9365 108.951 29.8564 108.779 29.693ZM105.085 28.944C104.623 29.619 103.998 29.955 103.2 29.955C102.331 29.955 101.684 29.6406 101.256 29.0087C100.828 28.3768 100.615 27.4244 100.615 26.1483C100.615 24.8722 100.825 23.9228 101.25 23.3001C101.672 22.6775 102.322 22.3662 103.2 22.3662C103.998 22.3662 104.623 22.6991 105.085 23.368C105.544 24.0337 105.775 24.9615 105.775 26.1513C105.778 27.3381 105.547 28.272 105.085 28.944Z" fill="black"/>
</g>
<defs>
<clipPath id="clip0">
<rect width="142" height="33" fill="white"/>
</clipPath>
</defs>
</svg>
