<?xml version="1.0" encoding="utf-8"?>
<!-- Generator: Adobe Illustrator 25.3.1, SVG Export Plug-In . SVG Version: 6.00 Build 0)  -->
<svg version="1.1" id="Layer_1" xmlns="http://www.w3.org/2000/svg" xmlns:xlink="http://www.w3.org/1999/xlink" x="0px" y="0px"
	 viewBox="0 0 960 960" style="enable-background:new 0 0 960 960;" xml:space="preserve">
<g>
	<g>
		<g>
			<path d="M480,960C215.33,960,0,744.67,0,480C0,215.33,215.33,0,480,0c264.67,0,480,215.33,480,480C960,744.67,744.67,960,480,960
				z M480,27.18C230.31,27.18,27.17,230.31,27.17,480c0,249.69,203.14,452.83,452.83,452.83c249.69,0,452.83-203.14,452.83-452.83
				C932.83,230.31,729.69,27.18,480,27.18z"/>
		</g>
	</g>
	<g>
		<polygon points="721.65,717.03 734.01,717.03 727.83,675.78 		"/>
		<path d="M451.16,685.92v-4.54c0-5.83-1.98-8.39-6.52-8.39h-6.17v21.55h5.01C448.24,694.54,451.16,692.44,451.16,685.92z"/>
		<path d="M480,57.26C246.52,57.26,57.26,246.52,57.26,480S246.52,902.74,480,902.74S902.74,713.48,902.74,480
			S713.48,57.26,480,57.26z M373.92,672.98h-13.4v69.91H347.7v-69.91h-13.4v-11.65h39.61V672.98z M404.32,715.86v27.03H391.5v-27.03
			l-16.19-54.53h13.4l9.79,37.17l9.79-37.17h12.23L404.32,715.86z M465.25,723.55c0,12.58-6.64,19.34-19.46,19.34h-20.16v-81.56
			h19.34c13.28,0,18.99,6.18,18.99,18.76V683c0,8.39-2.56,13.74-8.27,16.43c6.87,2.68,9.55,8.86,9.55,17.48V723.55z M507.89,672.98
			h-22.14v22.72h17.59v11.65h-17.59v23.88h22.14v11.65h-34.95v-81.56h34.95V672.98z M587.58,742.89h-12.12V684.4l-8.85,58.49h-12.12
			l-9.55-57.67v57.67h-11.19v-81.56h17.83l9.44,57.91l8.74-57.91h17.83V742.89z M631.84,672.98H609.7v22.72h17.59v11.65H609.7v23.88
			h22.14v11.65h-34.96v-81.56h34.96V672.98z M679.14,722.73c0,13.05-6.29,20.16-19.11,20.16h-20.27v-81.56h20.27
			c12.82,0,19.11,7.11,19.11,20.16V722.73z M700.1,742.89h-12.82v-81.56h12.82V742.89z M737.97,742.89l-2.21-14.79h-15.73
			l-2.21,14.79h-11.77l13.05-81.56h18.76l13.05,81.56H737.97z M751.76,286L624.75,411.87l127.01,120.97v66.43H454.33v-66.43h216.27
			L540.39,416.97v-18.12L664.95,286H431.68v334.41h-97.38V286H177.29v-66.43h574.46V286z"/>
		<path d="M659.8,672.98h-7.23v58.26h7.23c4.07,0,6.52-2.1,6.52-7.92V680.9C666.32,675.08,663.87,672.98,659.8,672.98z"/>
		<path d="M444.16,706.19h-5.7v25.05h7.34c4.32,0,6.64-1.98,6.64-8.04v-7.11C452.44,708.52,449.99,706.19,444.16,706.19z"/>
	</g>
</g>
</svg>
