<?xml version="1.0" encoding="utf-8"?>
<!-- Generator: Adobe Illustrator 25.3.1, SVG Export Plug-In . SVG Version: 6.00 Build 0)  -->
<svg version="1.1" id="Layer_1" xmlns="http://www.w3.org/2000/svg" xmlns:xlink="http://www.w3.org/1999/xlink" x="0px" y="0px"
	 viewBox="0 0 960 222.4" style="enable-background:new 0 0 960 222.4;" xml:space="preserve">
<style type="text/css">
	.st0{fill:#2B3990;}
	.st1{fill:#BE1E2D;}
</style>
<g>
	<g>
		<path class="st0" d="M280.32,104.6c3.52-2.48,5.28-6.42,5.28-11.82c0-5.6-1.59-9.59-4.76-11.97c-3.17-2.38-8.13-3.57-14.87-3.57
			h-17.1v31.07h15.98C271.64,108.32,276.8,107.08,280.32,104.6z"/>
		<path class="st0" d="M284.19,126.2c-1.59-1.31-3.62-2.32-6.1-3.01c-2.48-0.7-5.48-1.04-9-1.04h-20.22v31.52h20.29
			c3.72,0,6.83-0.44,9.33-1.34c2.5-0.89,4.51-2.08,6.02-3.57c1.51-1.49,2.6-3.23,3.27-5.21c0.67-1.98,1-4.09,1-6.32
			c0-2.33-0.37-4.42-1.11-6.28C286.93,129.1,285.77,127.51,284.19,126.2z"/>
		<path class="st0" d="M159.36,127.5l-39.18-65.72h17.62c1.73,0,3.11,0.42,4.13,1.26c1.01,0.84,1.87,1.91,2.56,3.2l19.71,35.91
			c1.14,2.13,2.13,4.15,2.97,6.06c0.84,1.91,1.61,3.78,2.3,5.61c0.64-1.88,1.38-3.78,2.19-5.69c0.82-1.91,1.79-3.9,2.94-5.98
			l41.23-73.39h-24.62H16.06C7.2,28.76,0,35.57,0,43.95v143.17c0,8.38,7.2,15.19,16.06,15.19h112.03l31.27,21.26V127.5z
			 M113.5,78.21H81.16v91.07h-20V78.21H28.67V61.78h84.83V78.21z"/>
		<path class="st0" d="M946.82,28.76H267.94L255.63-1.17L179.36,127.5v74.8h764.58c8.86,0,16.06-6.81,16.06-15.19V43.95
			C960,35.57,952.79,28.76,946.82,28.76z M305.97,150.32c-1.74,3.87-4.26,7.2-7.58,10c-3.32,2.8-7.41,4.99-12.27,6.58
			c-4.86,1.59-10.41,2.38-16.65,2.38h-40.59V61.78h37.1c7.04,0,13.05,0.67,18.03,2.01c4.98,1.34,9.07,3.25,12.26,5.72
			c3.2,2.48,5.54,5.48,7.03,9c1.49,3.52,2.23,7.48,2.23,11.89c0,2.53-0.37,4.95-1.12,7.25c-0.74,2.3-1.89,4.46-3.46,6.47
			c-1.56,2-3.54,3.83-5.95,5.46c-2.41,1.64-5.27,3.03-8.59,4.16c14.77,3.32,22.16,11.3,22.16,23.94
			C308.57,142.25,307.7,146.46,305.97,150.32z M393.54,77.69h-47.65v29.81h37.54v15.39h-37.54v30.41h47.65v15.98h-67.8V61.78h67.8
			V77.69z M943.94,186.25H422.09V44.82h521.85V186.25z"/>
	</g>
	<path class="st1" d="M503.9,129.62c0.72,1.71,1.42,3.44,2.12,5.17c0.69-1.79,1.41-3.54,2.15-5.28c0.75-1.74,1.54-3.4,2.38-4.98
		l31.82-59.55c0.39-0.74,0.81-1.34,1.22-1.78c0.42-0.45,0.89-0.77,1.41-0.96c0.52-0.2,1.1-0.32,1.75-0.37
		c0.64-0.05,1.41-0.07,2.3-0.07h15.09v107.5h-17.62V99.84c0-1.29,0.04-2.7,0.11-4.24c0.07-1.53,0.19-3.1,0.33-4.68l-32.49,60.96
		c-0.74,1.38-1.71,2.46-2.9,3.23c-1.19,0.77-2.58,1.15-4.17,1.15h-2.75c-1.58,0-2.97-0.39-4.16-1.15c-1.19-0.77-2.16-1.85-2.9-3.23
		L464.69,90.7c0.2,1.64,0.34,3.23,0.41,4.8c0.07,1.56,0.11,3.01,0.11,4.35v69.44h-17.62V61.78h15.09c0.89,0,1.66,0.02,2.31,0.07
		c0.64,0.05,1.23,0.17,1.75,0.37c0.52,0.2,1,0.52,1.45,0.96c0.45,0.45,0.87,1.04,1.26,1.78l32.12,59.7
		C502.4,126.26,503.18,127.91,503.9,129.62z"/>
	<path class="st1" d="M653.67,61.78v15.91h-47.65v29.81h37.54v15.39h-37.54v30.41h47.65v15.98h-67.8V61.78H653.67z"/>
	<path class="st1" d="M766.44,115.53c0,7.89-1.31,15.12-3.94,21.71c-2.62,6.59-6.32,12.27-11.08,17.03
		c-4.76,4.76-10.48,8.45-17.17,11.08c-6.69,2.62-14.11,3.94-22.23,3.94h-41.04V61.78h41.04c8.12,0,15.54,1.33,22.23,3.98
		c6.69,2.65,12.41,6.34,17.17,11.08c4.76,4.73,8.45,10.4,11.08,16.99C765.13,100.41,766.44,107.65,766.44,115.53z M745.99,115.53
		c0-5.89-0.79-11.19-2.38-15.87c-1.58-4.68-3.84-8.65-6.76-11.89c-2.92-3.25-6.48-5.74-10.67-7.47c-4.19-1.74-8.91-2.6-14.16-2.6
		h-20.89v75.68h20.89c5.25,0,9.97-0.86,14.16-2.6c4.19-1.73,7.74-4.23,10.67-7.47c2.93-3.24,5.18-7.21,6.76-11.89
		C745.2,126.72,745.99,121.43,745.99,115.53z"/>
	<path class="st1" d="M804.65,169.28h-20.08V61.78h20.08V169.28z"/>
	<path class="st1" d="M923.3,169.28h-15.46c-1.73,0-3.16-0.43-4.28-1.3c-1.11-0.86-1.92-1.94-2.42-3.23l-8.03-21.93h-44.53
		l-8.03,21.93c-0.4,1.14-1.18,2.18-2.34,3.12c-1.16,0.94-2.59,1.41-4.28,1.41H818.4l42.23-107.5h20.45L923.3,169.28z M853.72,128.69
		h34.27L874.9,92.93c-0.59-1.58-1.25-3.46-1.97-5.61c-0.72-2.16-1.42-4.5-2.12-7.02c-0.7,2.53-1.38,4.88-2.04,7.06
		c-0.67,2.18-1.33,4.09-1.97,5.72L853.72,128.69z"/>
</g>
</svg>
