<svg id="Capa_1" enable-background="new 0 0 512 512" height="512" viewBox="0 0 512 512" width="512" xmlns="http://www.w3.org/2000/svg"><path d="m223.265 93.714-36.233-7.854c-30.429-6.596-61.486 8.118-75.656 35.842l-86.528 169.295 109.201-27.804" fill="#d82e3d"/><path d="m417.479 292.478 7.854 36.233c6.596 30.429-8.118 61.486-35.842 75.656l-169.294 86.528 27.803-109.201" fill="#dd636e"/><path d="m419.762 290.203c-49.828 49.828-110.417 80.005-169.487 89.221l-116.226-116.227c9.207-59.08 39.393-119.66 89.221-169.487 30.105-30.105 64.149-53.036 99.403-68.504 60.272-26.463 124.122-31.098 177.998-12.423 18.684 53.885 14.059 117.744-12.405 178.017-15.468 35.254-38.399 69.298-68.504 99.403z" fill="#dfeaef"/><path d="m284.525 154.965c-49.828 49.828-89.492 100.93-114.247 144.461l-36.23-36.23c9.207-59.08 39.393-119.66 89.221-169.488 30.105-30.105 64.149-53.036 99.403-68.504 60.271-26.463 124.121-31.098 177.997-12.422-31.252 3.948-76.644 27.042-126.381 64.04-29.084 21.638-59.659 48.039-89.763 78.143z" fill="#b4d0d5"/><path d="m488.266 190.8-165.593-165.594c60.272-26.463 124.122-31.098 177.998-12.423 18.684 53.885 14.059 117.744-12.405 178.017z" fill="#dd636e"/><path d="m322.673 25.206 51.615 51.615c49.736-36.997 95.127-60.09 126.379-64.04-53.875-18.673-117.724-14.038-177.994 12.425z" fill="#d82e3d"/><path d="m5.625 504.913c45.903 0 122.533-38.315 122.533-38.315v43.94c54.925-29.293 108.018-104.357 42.109-170.266s-140.974-12.817-170.267 42.108h43.94s-38.315 76.63-38.315 122.533z" fill="#f6e266"/><path d="m170.259 340.269c-29.751-29.762-103.231 65.199-103.231 65.199s-48.816 66.132-61.408 99.441c0-45.901 38.319-122.529 38.319-122.529h-43.939c29.285-54.925 104.35-108.02 170.259-42.111z" fill="#ecc32e"/><circle cx="314.119" cy="201.225" fill="#dd636e" r="89.744"/><circle cx="314.118" cy="201.227" fill="#b1e4f9" r="55.572"/><path d="m329.36 161.932c-7.77-7.771-17.281-12.769-27.268-14.976 17.913-3.946 37.388 1.042 51.322 14.976 21.704 21.703 21.704 56.886 0 78.59-13.933 13.933-33.409 18.921-51.322 14.975 9.987-2.206 19.498-7.205 27.268-14.975 21.704-21.704 21.704-56.887 0-78.59z" fill="#e4f6ff"/><path d="m177.345 383.925c16.419-32.365-17.711-66.494-50.075-50.075-6.201 3.146-12.018 7.311-17.202 12.495-19.091 19.091-24.36 46.766-15.816 70.599 23.834 8.544 51.508 3.274 70.599-15.816 5.183-5.185 9.348-11.002 12.494-17.203z" fill="#d82e3d"/></svg>